<svg width="24" height="24" viewBox="0 0 24 24" fill="none" xmlns="http://www.w3.org/2000/svg">
<rect y="0.545471" width="23.4545" height="23.4545" rx="3.90909" fill="url(#paint0_linear_379_803)"/>
<path d="M18.5682 3.96593C18.5682 3.79658 18.4805 3.63931 18.3365 3.55027C18.1924 3.46124 18.0125 3.45315 17.861 3.52888L10.0429 7.43797C9.87732 7.52074 9.77276 7.68994 9.77276 7.87502V12.7865H4.24323C4.0437 12.853 3.90912 13.0397 3.90912 13.25V18.625C3.90912 18.8949 4.12789 19.1137 4.39776 19.1137H13.1932C13.4631 19.1137 13.6818 18.8949 13.6818 18.625V17.1591H14.6591V18.625C14.6591 18.8949 14.8779 19.1137 15.1478 19.1137H18.0796C18.3494 19.1137 18.5682 18.8949 18.5682 18.625V3.96593ZM5.86366 14.2273H6.84094V15.2046H5.86366V14.2273ZM7.81821 14.2273H8.79548V15.2046H7.81821V14.2273ZM6.84094 16.1818V17.1591H5.86366V16.1818H6.84094ZM7.81821 16.1818H8.79548V17.1591H7.81821V16.1818ZM16.6137 6.40911V7.38639H15.6364V6.40911H16.6137ZM11.7273 8.36366H12.7046V9.34093H11.7273V8.36366ZM12.7046 10.3182V11.2955H11.7273V10.3182H12.7046ZM11.7273 12.2727H12.7046V13.25H11.7273V12.2727ZM13.6818 12.2727H14.6591V13.25H13.6818V12.2727ZM12.7046 14.2273V15.2046H11.7273V14.2273H12.7046ZM13.6818 14.2273H14.6591V15.2046H13.6818V14.2273ZM16.6137 12.2727V13.25H15.6364V12.2727H16.6137ZM15.6364 14.2273H16.6137V15.2046H15.6364V14.2273ZM13.6818 10.3182H14.6591V11.2955H13.6818V10.3182ZM16.6137 10.3182V11.2955H15.6364V10.3182H16.6137ZM14.6591 8.36366V9.34093H13.6818V8.36366H14.6591ZM15.6364 8.36366H16.6137V9.34093H15.6364V8.36366Z" fill="white"/>
<defs>
<linearGradient id="paint0_linear_379_803" x1="0.977273" y1="1.52274" x2="22.4773" y2="24" gradientUnits="userSpaceOnUse">
<stop stop-color="#6F42C1"/>
<stop offset="0.494792" stop-color="#A081D7"/>
<stop offset="1" stop-color="#6F42C1"/>
</linearGradient>
</defs>
</svg>
