<svg width="24" height="24" viewBox="0 0 24 24" fill="none" xmlns="http://www.w3.org/2000/svg">
<rect width="24" height="24" rx="4" fill="url(#paint0_linear_379_742)"/>
<g clip-path="url(#clip0_379_742)">
<path d="M13.9281 8.94572V9.05015H14.1372V8.94572H13.9281ZM14.1237 7.2609C14.1237 7.2609 14.0697 7.22609 14.0427 7.21217H14.0225L13.9213 7.2052C13.9146 7.23305 13.9078 7.25394 13.9011 7.27482L14.0967 7.34445C14.0967 7.34445 14.1102 7.29571 14.1237 7.2609ZM9.06522 7.2052L9.0315 7.22609C9.0315 7.22609 8.99777 7.25394 8.97754 7.26786C8.97754 7.26786 8.99103 7.3166 8.99777 7.33748L9.19337 7.26786C9.19337 7.26786 9.17988 7.22609 9.17313 7.19824H9.06522V7.2052ZM8.97754 9.05711H9.18662V8.95268H8.97754V9.05711Z" fill="white"/>
<path d="M9.17997 7.20508C9.17997 7.20508 9.19346 7.26077 9.2002 7.2747L9.00461 7.34432C9.00461 7.34432 8.99112 7.30255 8.98438 7.2747C8.98438 7.2747 9.02484 7.24685 9.03833 7.23293L9.07205 7.21204H9.17997V7.20508Z" fill="white"/>
<path d="M9.3819 6.06336H9.53703C9.53028 6.10513 9.52354 6.13994 9.52354 6.17475L9.31445 6.15387C9.31445 6.15387 9.31445 6.12602 9.31445 6.11209C9.32794 6.09817 9.33469 6.09121 9.35492 6.07728L9.3819 6.0564V6.06336Z" fill="white"/>
<path d="M10.663 6.06323H10.8653C10.8653 6.09804 10.8653 6.13982 10.8586 6.17463L10.6562 6.1607C10.6562 6.1607 10.6563 6.09108 10.663 6.06323Z" fill="white"/>
<path d="M14.1239 7.26079C14.1239 7.26079 14.1036 7.32345 14.0969 7.34434L13.9013 7.27472C13.9013 7.27472 13.9148 7.23294 13.9215 7.2051C13.9552 7.07282 13.9822 6.86396 13.9013 6.63421C13.8541 6.50193 13.7799 6.37661 13.6787 6.27914H13.8338V6.16775C13.8338 6.16775 13.8203 6.1399 13.8203 6.12598C13.9418 6.25129 14.0362 6.3975 14.0969 6.56459C14.1913 6.84307 14.1643 7.10067 14.1239 7.26079Z" fill="white"/>
<path d="M12.3901 4.07901C12.3429 4.05812 12.2957 4.0442 12.2552 4.03027C12.2552 4.07901 12.2552 4.12078 12.2552 4.16951L12.4643 4.1904C12.4643 4.1904 12.4643 4.14167 12.4643 4.11382C12.444 4.09989 12.4171 4.09293 12.3968 4.07901H12.3901ZM10.6567 6.16763L10.8591 6.18155C10.8591 6.14674 10.8591 6.10497 10.8658 6.07016H10.6635C10.6635 6.07016 10.6567 6.13978 10.6567 6.16763ZM10.8591 4.19736C10.8523 4.15559 10.8456 4.10686 10.8456 4.06508C10.8051 4.07901 10.7579 4.09989 10.7174 4.11382C10.6972 4.12774 10.6702 4.1347 10.6432 4.14863C10.6432 4.17648 10.65 4.19736 10.6567 4.22521L10.8591 4.1904V4.19736ZM9.36176 6.09104C9.36176 6.09104 9.33478 6.11193 9.32129 6.12585C9.32129 6.13978 9.32129 6.1537 9.32129 6.16763L9.53037 6.18851C9.53037 6.14674 9.53712 6.11193 9.54386 6.07712H9.38874L9.36176 6.09801V6.09104Z" fill="white"/>
<path d="M12.458 4.10703C12.458 4.10703 12.458 4.15577 12.458 4.18361L12.2489 4.16273C12.2489 4.11399 12.2556 4.07222 12.2489 4.02349C12.2489 3.80766 12.1612 3.60576 12.0263 3.4526C11.8779 3.29247 11.6958 3.20196 11.5137 3.20893C11.3451 3.21589 11.163 3.31336 11.0349 3.48045C10.9067 3.64057 10.846 3.84247 10.846 4.05134C10.846 4.09311 10.846 4.14184 10.8595 4.18361L10.6572 4.21842C10.6572 4.21842 10.6504 4.16969 10.6437 4.14184C10.6234 3.84944 10.7044 3.57095 10.8797 3.3412C11.0483 3.1393 11.2777 3.00703 11.507 3.00006C11.743 2.9931 11.9926 3.10449 12.1747 3.31336C12.3703 3.52918 12.4715 3.81463 12.458 4.10703Z" fill="white"/>
<path d="M7.35919 10.6931H7.44687V10.9089H7.3457V10.8045C7.3457 10.7697 7.3457 10.7349 7.36594 10.7001L7.35919 10.6931Z" fill="white"/>
<path d="M7.33789 12.8164H7.43906V13.0322H7.35138C7.35138 13.0322 7.33789 12.9626 7.33789 12.9278V12.8234V12.8164Z" fill="white"/>
<path d="M8.77533 13.1855L8.82929 13.2482V13.2969H8.62695V13.1855H8.77533Z" fill="white"/>
<path d="M8.6543 10.4424H8.85663V10.4842L8.80268 10.5468H8.6543V10.4424Z" fill="white"/>
<path d="M9.04499 15.9983H8.97754V16.2141H9.04499V15.9983Z" fill="white"/>
<path d="M9.04499 17.9546H8.97754V18.1704H9.04499V17.9546Z" fill="white"/>
<path d="M9.18662 8.94556H8.97754V9.04999H9.18662V8.94556Z" fill="white"/>
<path d="M9.17929 15.1836H9.07812V15.3994H9.17929V15.1836Z" fill="white"/>
<path d="M8.97754 18.7482C9.04499 18.7134 9.11243 18.6925 9.18662 18.6855V18.783H8.97754V18.7482Z" fill="white"/>
<path d="M13.8944 18.6786V18.7761H14.1034V18.7343C14.036 18.7064 13.9685 18.6856 13.8944 18.6786ZM12.5319 18.7761H12.741V18.6716H12.5319V18.7761ZM11.4461 18.7761H11.6551V18.6716H11.4461V18.7761ZM10.3265 18.7761H10.5355V18.6716H10.3265V18.7761ZM8.97754 18.7761H9.18662V18.6786C9.11243 18.6856 9.04499 18.7134 8.97754 18.7413V18.7761Z" fill="white"/>
<path d="M13.9957 15.1836H13.8945V15.3994H13.9957V15.1836Z" fill="white"/>
<path d="M14.0973 15.8242H13.9961V16.04H14.0973V15.8242Z" fill="white"/>
<path d="M14.0973 17.9546H13.9961V18.1704H14.0973V17.9546Z" fill="white"/>
<path d="M13.8945 18.6785C13.9687 18.6854 14.0362 18.7063 14.1036 18.7342V18.7759H13.8945V18.6785Z" fill="white"/>
<path d="M14.1368 8.94556H13.9277V9.04999H14.1368V8.94556Z" fill="white"/>
<path d="M14.5147 10.4424V10.5468H14.3731L14.3057 10.4911V10.4424H14.5147Z" fill="white"/>
<path d="M14.3529 13.1855H14.5147V13.2969H14.3057V13.2273L14.3529 13.1855Z" fill="white"/>
<path d="M8.77533 13.1855L8.82929 13.2482V13.2969H8.62695V13.1855H8.77533Z" fill="white"/>
<path d="M8.85663 10.4424V10.4842L8.80268 10.5468H8.6543V10.4424H8.85663Z" fill="white"/>
<path d="M14.5147 10.4424V10.5468H14.3731L14.3057 10.4911V10.4424H14.5147Z" fill="white"/>
<path d="M14.3529 13.1855H14.5147V13.2969H14.3057V13.2273L14.3529 13.1855Z" fill="white"/>
<path d="M9.17929 15.1836H9.07812V15.3994H9.17929V15.1836Z" fill="white"/>
<path d="M10.5353 15.2881H10.3262V15.3925H10.5353V15.2881Z" fill="white"/>
<path d="M11.6544 15.2881H11.4453V15.3925H11.6544V15.2881Z" fill="white"/>
<path d="M12.7403 15.2881H12.5312V15.3925H12.7403V15.2881Z" fill="white"/>
<path d="M13.9957 15.1836H13.8945V15.3994H13.9957V15.1836Z" fill="white"/>
<path d="M10.5353 15.2881H10.3262V15.3925H10.5353V15.2881Z" fill="white"/>
<path d="M10.5353 18.6716H10.3262V18.7761H10.5353V18.6716Z" fill="white"/>
<path d="M11.6544 15.2881H11.4453V15.3925H11.6544V15.2881Z" fill="white"/>
<path d="M11.6544 18.6716H11.4453V18.7761H11.6544V18.6716Z" fill="white"/>
<path d="M12.7403 15.2881H12.5312V15.3925H12.7403V15.2881Z" fill="white"/>
<path d="M12.7403 18.6716H12.5312V18.7761H12.7403V18.6716Z" fill="white"/>
<path d="M9.04523 15.9981V16.2139H6.96789C6.49577 16.2139 6.11133 15.7892 6.11133 15.2601V13.812C6.11133 13.262 6.516 12.8164 7.01511 12.8164H7.4535V13.0322H7.01511C6.63741 13.0322 6.32041 13.3873 6.32041 13.8189V15.2671C6.32041 15.6778 6.61717 16.005 6.97464 16.005H9.05198L9.04523 15.9981Z" fill="white"/>
<path d="M7.35919 10.6931H7.44687V10.9089H7.3457V10.8045C7.3457 10.7697 7.3457 10.7349 7.36594 10.7001L7.35919 10.6931Z" fill="white"/>
<path d="M9.04499 17.9546H8.97754V18.1704H9.04499V17.9546Z" fill="white"/>
<path d="M14.0973 15.8242H13.9961V16.04H14.0973V15.8242Z" fill="white"/>
<path d="M14.0973 17.9546H13.9961V18.1704H14.0973V17.9546Z" fill="white"/>
<path d="M18.1031 7.76904H18.0086V7.87347H18.2177V7.77601C18.1772 7.77601 18.1435 7.76904 18.1031 7.76904ZM16.4102 7.77601V7.87347H16.6192V7.76904H16.5181C16.4843 7.76904 16.4506 7.76904 16.4169 7.77601H16.4102Z" fill="white"/>
<path d="M18.2175 7.77609V7.87356H18.0085V6.62735H16.6191V7.87356H16.41V7.77609C15.9648 7.82483 15.6141 8.22167 15.6141 8.69509C15.6141 9.08496 15.8502 9.41914 16.1807 9.55142L16.1672 15.2116C16.1672 15.5458 15.9041 15.8242 15.5737 15.8242H14.0966V16.0401H13.9954V15.8242H14.0966V13.7008L14.4271 13.4014H15.2769C15.459 13.4014 15.6276 13.3109 15.7288 13.1578L15.8232 13.0185V10.7002L15.6478 10.4774C15.5804 10.3938 15.486 10.3451 15.3781 10.3451H14.4473L14.1303 10.0318V9.06408H13.9212V8.95965H14.1303V9.06408H14.5552L14.5822 9.00142C14.6159 8.91787 14.8924 8.20078 14.4878 7.61597C14.3866 7.47673 14.2652 7.35837 14.1168 7.27483C14.1033 7.30964 14.0966 7.33748 14.0898 7.35837L13.8942 7.28875C13.8942 7.28875 13.9077 7.24698 13.9145 7.21913C13.9482 7.08685 13.9752 6.87799 13.8942 6.64824C13.847 6.51596 13.7728 6.39064 13.6717 6.29317H13.8268V6.18178C13.8268 6.18178 13.8133 6.15393 13.8133 6.14001C13.7391 5.25583 13.2063 4.47608 12.4509 4.12797C12.4509 4.15582 12.4509 4.17671 12.4509 4.20456L12.2418 4.18367C12.2418 4.13493 12.2486 4.09316 12.2418 4.04443C12.2418 3.8286 12.1541 3.6267 12.0192 3.47354C11.8709 3.31341 11.6888 3.2229 11.5067 3.22987C11.338 3.23683 11.1559 3.3343 11.0278 3.50139C10.8996 3.66151 10.8389 3.86341 10.8389 4.07228C10.8389 4.11405 10.8389 4.16278 10.8524 4.20456L10.6501 4.23937C10.6501 4.23937 10.6433 4.19063 10.6366 4.16278C9.90144 4.53177 9.39559 5.27671 9.31466 6.13305C9.32815 6.11912 9.33489 6.11216 9.35513 6.09824L9.3821 6.07735H9.53723C9.53049 6.11912 9.52374 6.15393 9.52374 6.18874L9.31466 6.16786C9.31466 6.16786 9.31466 6.14001 9.31466 6.12609C9.21349 6.20267 9.1393 6.3071 9.07185 6.41153C8.883 6.74571 8.92347 7.09381 8.97743 7.28179C8.99766 7.26786 9.0179 7.25394 9.03138 7.24002L9.06511 7.21913H9.17302C9.17302 7.21913 9.18651 7.27483 9.19325 7.28875L8.99766 7.35837C8.99766 7.35837 8.98417 7.3166 8.97743 7.28875C8.82905 7.41407 8.6402 7.62293 8.51879 7.92926C8.33669 8.37483 8.39065 8.78559 8.4446 8.99446L8.46484 9.07104H8.97743V8.96661H9.18651V9.07104H8.97743V10.0388L8.70764 10.3521H7.7634C7.62851 10.3521 7.50036 10.4286 7.43291 10.547L7.3857 10.6236C7.3857 10.6236 7.35872 10.6793 7.35198 10.7141H7.43966V10.9299H7.33849V10.8255C7.33849 10.7907 7.33849 10.7559 7.35872 10.721H6.93381C5.31511 10.721 3.99316 12.0787 3.99316 13.7495V15.0654C3.99316 16.792 5.35557 18.1913 7.02824 18.1913H8.97068V17.9755H9.03813V18.1913H8.97068V18.7622C9.03813 18.7274 9.10558 18.7065 9.17977 18.6996V18.797H8.97068V18.7622C8.7009 18.8875 8.5053 19.173 8.5053 19.5072C8.5053 19.9597 8.86277 20.3287 9.30117 20.3287H13.7863C14.2247 20.3287 14.5822 19.9597 14.5822 19.5072C14.5822 19.173 14.3799 18.8806 14.0966 18.7483V18.7901H13.8875V18.6926C13.9617 18.6996 14.0291 18.7205 14.0966 18.7483V18.1844H13.9954V17.9686H14.0966V18.1844H16.0458C17.4082 18.1844 18.5143 17.0426 18.5143 15.6363V9.52357C18.8043 9.36345 18.9999 9.05711 18.9999 8.70205C18.9999 8.22863 18.6559 7.84572 18.2175 7.78306V7.77609ZM10.8592 6.06343C10.8592 6.09824 10.8592 6.14001 10.8524 6.17482L10.6501 6.1609C10.6501 6.1609 10.6501 6.09127 10.6568 6.06343H10.8592ZM14.508 13.29H14.2989V13.2274L14.3461 13.1856H14.508V13.29ZM14.2989 10.4426H14.508V10.547H14.3596L14.2989 10.4843V10.4356V10.4426ZM12.7274 15.3926H12.5183V15.2882H12.7274V15.3926ZM10.3129 18.6648H10.5219V18.7692H10.3129V18.6648ZM11.6415 15.3926H11.4325V15.2882H11.6415V15.3926ZM11.4325 18.6648H11.6415V18.7692H11.4325V18.6648ZM10.5219 15.3926H10.3129V15.2882H10.5219V15.3926ZM12.7274 18.7762H12.5183V18.6717H12.7274V18.7762ZM8.62671 13.1856H8.77509L8.83579 13.2483V13.29H8.62671V13.1856ZM8.65369 10.4426H8.86277V10.4843L8.80207 10.554H8.65369V10.4495V10.4426ZM9.04487 16.2141H6.96754C6.49541 16.2141 6.11097 15.7894 6.11097 15.2603V13.8122C6.11097 13.2622 6.51565 12.8166 7.01475 12.8166H7.45315V13.0325H7.36547C7.37896 13.0742 7.39919 13.109 7.41942 13.1438L7.48687 13.2274C7.56106 13.3388 7.68921 13.4014 7.81736 13.4014H8.69415L8.99092 13.7287V16.0053H9.05836V16.2211L9.04487 16.2141ZM9.08534 15.3926V15.1768H9.18651V15.3926H9.08534ZM13.901 15.3926V15.1768H14.0022V15.3926H13.901Z" fill="white"/>
<path d="M18.2178 6.41846V7.88049H18.0155V6.62732H16.6193V7.88049H16.417V6.41846H18.2178Z" fill="white"/>
</g>
<defs>
<linearGradient id="paint0_linear_379_742" x1="2" y1="1" x2="22" y2="23" gradientUnits="userSpaceOnUse">
<stop offset="0.0283758" stop-color="#17A2B8"/>
<stop offset="0.517427" stop-color="#73C5D2"/>
<stop offset="1" stop-color="#28A9BD"/>
</linearGradient>
<clipPath id="clip0_379_742">
<rect width="15" height="17.3077" fill="white" transform="translate(4 3)"/>
</clipPath>
</defs>
</svg>
