<svg width="252" height="253" viewBox="0 0 252 253" fill="none" xmlns="http://www.w3.org/2000/svg">
<g clip-path="url(#clip0_176_35965)">
<mask id="mask0_176_35965" style="mask-type:luminance" maskUnits="userSpaceOnUse" x="109" y="110" width="143" height="33">
<path d="M251.436 110.746L141.51 110.746L109.926 142.329L251.436 142.329L251.436 110.746Z" fill="white"/>
</mask>
<g mask="url(#mask0_176_35965)">
<path d="M3.1571 142.329L116.211 142.329C117.955 142.329 119.368 140.915 119.368 139.172C119.368 137.428 117.955 136.015 116.211 136.015L3.15711 136.015C1.41347 136.015 -3.00891e-05 137.428 -3.02416e-05 139.172C-3.0394e-05 140.915 1.41347 142.329 3.1571 142.329Z" fill="white" fill-opacity="0.56"/>
<path d="M42.4618 129.694L135.331 129.694C136.915 129.694 138.199 128.411 138.199 126.827L138.199 126.247C138.199 124.664 136.915 123.38 135.331 123.38L42.4618 123.38C40.8781 123.38 39.5943 124.664 39.5943 126.247L39.5943 126.827C39.5943 128.411 40.8781 129.694 42.4618 129.694Z" fill="white"/>
<path d="M146.322 129.694L220.072 129.694C221.489 129.694 222.638 128.546 222.638 127.128L222.638 125.946C222.638 124.529 221.489 123.38 220.072 123.38L146.322 123.38C144.905 123.38 143.756 124.529 143.756 125.946L143.756 127.128C143.756 128.546 144.905 129.694 146.322 129.694Z" fill="white" fill-opacity="0.56"/>
<path d="M218.635 128.246L193.277 128.246C192.438 128.246 191.752 127.566 191.752 126.72C191.752 125.875 192.432 125.195 193.277 125.195L218.635 125.195C219.475 125.195 220.16 125.875 220.16 126.72C220.16 127.566 219.48 128.246 218.635 128.246Z" fill="white"/>
<path d="M122.35 138.661C122.071 140.382 123.24 142.003 124.961 142.283C126.682 142.562 128.304 141.393 128.583 139.672C128.863 137.951 127.694 136.329 125.973 136.05C124.252 135.771 122.63 136.939 122.35 138.661Z" fill="white"/>
<path d="M136.461 126.537C136.461 127.389 135.769 128.08 134.918 128.08C134.066 128.08 133.374 127.389 133.374 126.537C133.374 125.686 134.066 124.994 134.918 124.994C135.769 124.994 136.461 125.686 136.461 126.537Z" fill="white" fill-opacity="0.56"/>
<path d="M135.225 142.329L248.279 142.329C250.023 142.329 251.436 140.915 251.436 139.172C251.436 137.428 250.023 136.015 248.279 136.015L135.225 136.015C133.481 136.015 132.068 137.428 132.068 139.172C132.068 140.915 133.481 142.329 135.225 142.329Z" fill="white"/>
<path d="M216.14 140.644L136.39 140.644C135.58 140.644 134.923 139.988 134.923 139.178C134.923 138.368 135.58 137.711 136.39 137.711L216.14 137.711C216.95 137.711 217.606 138.368 217.606 139.178C217.606 139.988 216.95 140.644 216.14 140.644Z" fill="white" fill-opacity="0.56"/>
</g>
<mask id="mask1_176_35965" style="mask-type:luminance" maskUnits="userSpaceOnUse" x="109" y="0" width="33" height="143">
<path d="M141.51 0.819153L141.51 110.746L109.926 142.329L109.926 0.81915L141.51 0.819153Z" fill="white"/>
</mask>
<g mask="url(#mask1_176_35965)">
<path d="M109.926 117.03L109.926 3.97632C109.926 2.23221 111.339 0.819183 113.084 0.819183C114.828 0.819183 116.241 2.23221 116.241 3.97632L116.241 117.03C116.241 118.774 114.828 120.187 113.084 120.187C111.339 120.187 109.926 118.774 109.926 117.03Z" fill="white" fill-opacity="0.56"/>
<path d="M125.428 139.018L126.008 139.018C127.591 139.018 128.875 137.734 128.875 136.151L128.875 43.281C128.875 41.6974 127.591 40.4136 126.008 40.4136L125.428 40.4136C123.845 40.4136 122.561 41.6974 122.561 43.281L122.561 136.151C122.561 137.734 123.845 139.018 125.428 139.018Z" fill="white"/>
<path d="M113.084 123.138C111.34 123.138 109.926 124.551 109.926 126.295C109.926 128.039 111.34 129.452 113.084 129.452C114.827 129.452 116.241 128.039 116.241 126.295C116.241 124.551 114.827 123.138 113.084 123.138Z" fill="white"/>
<path d="M125.535 30.3686C123.791 30.3686 122.378 31.7821 122.378 33.5257C122.378 35.2694 123.791 36.6829 125.535 36.6829C127.278 36.6829 128.692 35.2694 128.692 33.5257C128.692 31.7821 127.278 30.3686 125.535 30.3686Z" fill="white" fill-opacity="0.56"/>
<path d="M125.718 137.28C124.867 137.28 124.175 136.588 124.175 135.737C124.175 134.885 124.867 134.194 125.718 134.194C126.569 134.194 127.261 134.885 127.261 135.737C127.261 136.588 126.569 137.28 125.718 137.28Z" fill="white" fill-opacity="0.56"/>
<path d="M109.926 249.098L109.926 136.044C109.926 134.3 111.339 132.887 113.084 132.887C114.828 132.887 116.241 134.3 116.241 136.044L116.241 249.098C116.241 250.842 114.828 252.255 113.084 252.255C111.339 252.255 109.926 250.842 109.926 249.098Z" fill="white"/>
<path d="M111.611 216.959L111.611 137.209C111.611 136.399 112.268 135.743 113.078 135.743C113.888 135.743 114.544 136.399 114.544 137.209L114.544 216.959C114.544 217.769 113.888 218.426 113.078 218.426C112.268 218.426 111.611 217.769 111.611 216.959Z" fill="white" fill-opacity="0.56"/>
<path d="M124.063 84.5308L124.063 45.8233C124.063 45.0133 124.719 44.3571 125.529 44.3571C126.339 44.3571 126.995 45.0133 126.995 45.8233L126.995 84.5308C126.995 85.3408 126.339 85.9971 125.529 85.9971C124.719 85.9971 124.063 85.3408 124.063 84.5308Z" fill="white" fill-opacity="0.56"/>
</g>
</g>
<defs>
<clipPath id="clip0_176_35965">
<rect width="251.436" height="251.436" fill="white" transform="translate(251.436 252.255) rotate(-180)"/>
</clipPath>
</defs>
</svg>
