<?xml version="1.0" encoding="UTF-8"?>
<!DOCTYPE svg PUBLIC "-//W3C//DTD SVG 1.1//EN" "http://www.w3.org/Graphics/SVG/1.1/DTD/svg11.dtd">
<svg xmlns="http://www.w3.org/2000/svg" version="1.1" width="411px" height="1071px" style="shape-rendering:geometricPrecision; text-rendering:geometricPrecision; image-rendering:optimizeQuality; fill-rule:evenodd; clip-rule:evenodd" xmlns:xlink="http://www.w3.org/1999/xlink">
<g><path style="opacity:0.969" fill="#e5eae9" d="M 410.5,30.5 C 410.5,37.1667 410.5,43.8333 410.5,50.5C 356.55,60.9824 305.55,79.4824 257.5,106C 223.862,126.029 194.195,151.029 168.5,181C 160.508,183.906 155.841,181.24 154.5,173C 154.494,170.7 154.994,168.534 156,166.5C 200.488,115.039 254.988,78.2059 319.5,56C 349.281,45.4719 379.614,36.9719 410.5,30.5 Z"/></g>
<g><path style="opacity:0.971" fill="#e5eae9" d="M 354.5,82.5 C 362.084,81.918 366.084,85.418 366.5,93C 366.592,95.8139 365.592,98.1473 363.5,100C 279.515,123.79 213.848,172.123 166.5,245C 161.034,247.548 156.2,246.714 152,242.5C 150,238.833 150,235.167 152,231.5C 188.353,175.812 236.52,133.646 296.5,105C 315.579,96.5895 334.912,89.0895 354.5,82.5 Z"/></g>
<g><path style="opacity:0.971" fill="#e5eae9" d="M 297.5,145.5 C 306.311,147.479 309.478,152.812 307,161.5C 258.529,188.637 219.863,225.97 191,273.5C 177.832,294.836 166.498,317.169 157,340.5C 153.178,344.721 148.678,345.554 143.5,343C 140.822,341.159 139.155,338.659 138.5,335.5C 162.172,275.293 197.839,223.459 245.5,180C 261.73,166.727 279.063,155.227 297.5,145.5 Z"/></g>
<g><path style="opacity:0.953" fill="#e5eae9" d="M 145.5,183.5 C 154.884,185.266 157.718,190.599 154,199.5C 149.651,204.195 144.818,204.695 139.5,201C 134.646,192.726 136.646,186.893 145.5,183.5 Z"/></g>
<g><path style="opacity:0.969" fill="#e5ebe9" d="M 126.5,207.5 C 133.703,206.766 138.036,209.933 139.5,217C 126.247,238.96 113.747,261.46 102,284.5C 65.3668,363.04 47.0335,445.707 47,532.5C 46.214,535.583 44.3807,537.749 41.5,539C 44,540.167 45.8333,542 47,544.5C 50.6191,658.029 85.2858,760.695 151,852.5C 152.609,863.224 148.109,867.39 137.5,865C 87.502,798.76 54.6686,724.594 39,642.5C 33.4158,612.409 29.9158,582.075 28.5,551.5C 27.7448,545.899 29.7448,541.732 34.5,539C 32,537.833 30.1667,536 29,533.5C 27.5189,417.062 58.1856,310.062 121,212.5C 122.73,210.598 124.563,208.931 126.5,207.5 Z"/></g>
<g><path style="opacity:0.968" fill="#e5ebe9" d="M 140.5,254.5 C 149.394,255.213 153.227,259.879 152,268.5C 118.718,327.01 97.3849,389.677 88,456.5C 87.5,458.333 86.3333,459.5 84.5,460C 79.3452,461.087 74.8452,459.92 71,456.5C 78.6338,385.598 100.3,319.265 136,257.5C 137.409,256.219 138.909,255.219 140.5,254.5 Z"/></g>
<g><path style="opacity:0.942" fill="#e5eae9" d="M 135.5,350.5 C 145.008,349.84 149.175,354.173 148,363.5C 142.064,368.97 136.398,368.636 131,362.5C 129.309,357.131 130.809,353.131 135.5,350.5 Z"/></g>
<g><path style="opacity:0.971" fill="#e5ebe9" d="M 85.5,644.5 C 90.1264,643.7 93.9597,645.034 97,648.5C 116.376,731.597 154.376,804.597 211,867.5C 215.205,876.206 212.538,881.539 203,883.5C 201.033,883.458 199.199,882.958 197.5,882C 138.284,816.456 98.6176,740.29 78.5,653.5C 79.1878,649.083 81.5211,646.083 85.5,644.5 Z"/></g>
<g><path style="opacity:0.974" fill="#e5ebe9" d="M 144.5,708.5 C 148.516,707.9 152.016,708.9 155,711.5C 186.784,788.72 236.118,852.387 303,902.5C 305.7,910.766 302.867,916.099 294.5,918.5C 291.893,917.863 289.56,916.696 287.5,915C 220.966,863.445 171.132,798.945 138,721.5C 136.476,715.215 138.642,710.882 144.5,708.5 Z"/></g>
<g><path style="opacity:0.956" fill="#e5ebe9" d="M 154.5,868.5 C 165.344,867.501 169.511,872.168 167,882.5C 161.333,889.167 155.667,889.167 150,882.5C 148.309,876.61 149.809,871.944 154.5,868.5 Z"/></g>
<g><path style="opacity:0.977" fill="#e5ebe9" d="M 222.5,887.5 C 225.649,887.211 228.649,887.711 231.5,889C 279.056,935.63 334.056,970.963 396.5,995C 400.654,1001.1 399.988,1006.77 394.5,1012C 391.833,1012.67 389.167,1012.67 386.5,1012C 322.275,986.731 265.775,949.898 217,901.5C 216.333,898.833 216.333,896.167 217,893.5C 219.04,891.63 220.873,889.63 222.5,887.5 Z"/></g>
<g><path style="opacity:0.979" fill="#e5eae9" d="M 410.5,1038.5 C 410.5,1045.17 410.5,1051.83 410.5,1058.5C 315.564,1029.47 235.064,978.136 169,904.5C 166.127,892.706 170.627,888.206 182.5,891C 245.158,960.513 321.158,1009.68 410.5,1038.5 Z"/></g>
<g><path style="opacity:0.942" fill="#e5eae9" d="M 315.5,913.5 C 321.152,913.641 324.152,916.474 324.5,922C 323.638,929.863 319.305,933.197 311.5,932C 306.757,927.311 306.257,922.145 310,916.5C 311.876,915.391 313.709,914.391 315.5,913.5 Z"/></g>
</svg>
