<svg width="48" height="48" viewBox="0 0 48 48" fill="none" xmlns="http://www.w3.org/2000/svg">
<circle cx="24" cy="24" r="24" fill="url(#paint0_linear_1050_779)"/>
<path fill-rule="evenodd" clip-rule="evenodd" d="M31.817 16.1133C31.9328 16.2083 32 16.3502 32 16.5V30.5C32 30.7383 31.8318 30.9436 31.5981 30.9903L26.5981 31.9903C26.5333 32.0032 26.4667 32.0032 26.4019 31.9903L21.5 31.0099L16.5981 31.9903C16.4512 32.0197 16.2988 31.9816 16.183 31.8867C16.0672 31.7917 16 31.6498 16 31.5V17.5C16 17.2617 16.1682 17.0565 16.4019 17.0097L21.4019 16.0097C21.4667 15.9968 21.5333 15.9968 21.5981 16.0097L26.5 16.9901L31.4019 16.0097C31.5488 15.9803 31.7012 16.0184 31.817 16.1133ZM26 17.9099L22 17.1099V30.0901L26 30.8901V17.9099ZM27 30.8901L31 30.0901V17.1099L27 17.9099V30.8901ZM21 30.0901V17.1099L17 17.9099V30.8901L21 30.0901Z" fill="white"/>
<defs>
<linearGradient id="paint0_linear_1050_779" x1="-2.92882e-08" y1="24.3038" x2="48" y2="24.3038" gradientUnits="userSpaceOnUse">
<stop stop-color="#4EB9A8"/>
<stop offset="0.0001" stop-color="#4EB9A8"/>
<stop offset="1" stop-color="#09806D"/>
</linearGradient>
</defs>
</svg>
