<svg width="48" height="48" viewBox="0 0 48 48" fill="none" xmlns="http://www.w3.org/2000/svg">
<circle cx="24" cy="24" r="24" fill="url(#paint0_linear_1050_780)"/>
<path d="M16 24C16 19.5817 19.5817 16 24 16C28.4183 16 32 19.5817 32 24C32 28.4183 28.4183 32 24 32C19.5817 32 16 28.4183 16 24ZM23.5 17.0766C22.8306 17.2813 22.1646 17.8972 21.6127 18.932C21.4696 19.2003 21.3373 19.4918 21.2177 19.8036C21.9229 19.9609 22.6905 20.0611 23.5 20.0905V17.0766ZM20.2485 19.5394C20.3914 19.1554 20.5527 18.7946 20.7304 18.4614C20.9091 18.1263 21.1086 17.8124 21.3273 17.5284C20.4695 17.883 19.6977 18.4031 19.0515 19.049C19.4129 19.2329 19.8141 19.3978 20.2485 19.5394ZM19.5085 23.5C19.5447 22.43 19.6968 21.4126 19.9448 20.4923C19.3753 20.307 18.8498 20.083 18.3805 19.8254C17.6064 20.8657 17.1144 22.1283 17.0176 23.5H19.5085ZM20.9087 20.7588C20.6862 21.5864 20.545 22.513 20.5091 23.5H23.5V21.0911C22.5902 21.0603 21.7171 20.9456 20.9087 20.7588ZM24.5 21.0911V23.5H27.4909C27.455 22.513 27.3138 21.5864 27.0913 20.7588C26.2829 20.9456 25.4098 21.0603 24.5 21.0911ZM20.5091 24.5C20.545 25.487 20.6862 26.4135 20.9087 27.2411C21.7171 27.0544 22.5902 26.9397 23.5 26.9088V24.5H20.5091ZM24.5 24.5V26.9088C25.4098 26.9397 26.2829 27.0544 27.0913 27.2411C27.3138 26.4135 27.455 25.487 27.4909 24.5H24.5ZM21.2177 28.1964C21.3373 28.5081 21.4696 28.7996 21.6127 29.068C22.1646 30.1028 22.8306 30.7187 23.5 30.9234V27.9094C22.6905 27.9389 21.9229 28.0391 21.2177 28.1964ZM21.3273 30.4716C21.1086 30.1876 20.9091 29.8737 20.7304 29.5386C20.5527 29.2054 20.3914 28.8446 20.2485 28.4605C19.8141 28.6022 19.4129 28.7671 19.0515 28.9509C19.6977 29.5968 20.4695 30.117 21.3273 30.4716ZM19.9448 27.5077C19.6968 26.5874 19.5447 25.57 19.5085 24.5H17.0176C17.1144 25.8717 17.6064 27.1343 18.3805 28.1745C18.8498 27.917 19.3753 27.693 19.9448 27.5077ZM26.6727 30.4716C27.5305 30.117 28.3023 29.5968 28.9485 28.9509C28.5871 28.7671 28.1859 28.6022 27.7515 28.4605C27.6086 28.8446 27.4473 29.2054 27.2696 29.5386C27.0909 29.8737 26.8914 30.1876 26.6727 30.4716ZM24.5 27.9094V30.9234C25.1694 30.7187 25.8354 30.1028 26.3872 29.068C26.5304 28.7996 26.6626 28.5081 26.7823 28.1964C26.0771 28.0391 25.3095 27.9389 24.5 27.9094ZM28.0552 27.5077C28.6247 27.693 29.1502 27.917 29.6195 28.1745C30.3936 27.1343 30.8856 25.8717 30.9824 24.5H28.4915C28.4552 25.57 28.3032 26.5874 28.0552 27.5077ZM30.9824 23.5C30.8856 22.1283 30.3936 20.8657 29.6195 19.8254C29.1502 20.083 28.6247 20.307 28.0552 20.4923C28.3032 21.4126 28.4552 22.43 28.4915 23.5H30.9824ZM27.2696 18.4614C27.4473 18.7946 27.6086 19.1554 27.7515 19.5394C28.1859 19.3978 28.5871 19.2329 28.9485 19.049C28.3023 18.4031 27.5305 17.883 26.6727 17.5283C26.8914 17.8124 27.0909 18.1263 27.2696 18.4614ZM26.7823 19.8036C26.6626 19.4918 26.5304 19.2003 26.3872 18.932C25.8354 17.8972 25.1694 17.2813 24.5 17.0766V20.0905C25.3095 20.0611 26.0771 19.9609 26.7823 19.8036Z" fill="white"/>
<defs>
<linearGradient id="paint0_linear_1050_780" x1="-2.92882e-08" y1="24.3038" x2="48" y2="24.3038" gradientUnits="userSpaceOnUse">
<stop stop-color="#4EB9A8"/>
<stop offset="0.0001" stop-color="#4EB9A8"/>
<stop offset="1" stop-color="#09806D"/>
</linearGradient>
</defs>
</svg>
