<svg width="48" height="48" viewBox="0 0 48 48" fill="none" xmlns="http://www.w3.org/2000/svg">
<circle cx="24" cy="24" r="24" fill="url(#paint0_linear_1050_778)"/>
<path d="M18.5 20C18.7761 20 19 19.7761 19 19.5C19 19.2239 18.7761 19 18.5 19C18.2239 19 18 19.2239 18 19.5C18 19.7761 18.2239 20 18.5 20Z" fill="white"/>
<path d="M20.5 19.5C20.5 19.7761 20.2761 20 20 20C19.7239 20 19.5 19.7761 19.5 19.5C19.5 19.2239 19.7239 19 20 19C20.2761 19 20.5 19.2239 20.5 19.5Z" fill="white"/>
<path d="M21.5 20C21.7761 20 22 19.7761 22 19.5C22 19.2239 21.7761 19 21.5 19C21.2239 19 21 19.2239 21 19.5C21 19.7761 21.2239 20 21.5 20Z" fill="white"/>
<path d="M18 17C16.8954 17 16 17.8954 16 19V29C16 30.1046 16.8954 31 18 31H30C31.1046 31 32 30.1046 32 29V19C32 17.8954 31.1046 17 30 17H18ZM30 18C30.5523 18 31 18.4477 31 19V21H17V19C17 18.4477 17.4477 18 18 18H30ZM17 29V22H21V30H18C17.4477 30 17 29.5523 17 29ZM22 30V22H31V29C31 29.5523 30.5523 30 30 30H22Z" fill="white"/>
<defs>
<linearGradient id="paint0_linear_1050_778" x1="-2.92882e-08" y1="24.3038" x2="48" y2="24.3038" gradientUnits="userSpaceOnUse">
<stop stop-color="#4EB9A8"/>
<stop offset="0.0001" stop-color="#4EB9A8"/>
<stop offset="1" stop-color="#09806D"/>
</linearGradient>
</defs>
</svg>
